<svg xmlns="http://www.w3.org/2000/svg" viewBox="0 0 1600 900" width="1600" height="900" role="img" aria-hidden="true">
<defs>
  <linearGradient id="bgg" x1="0" y1="0" x2="1" y2="1">
    <stop offset="0" stop-color="#1b1727"/><stop offset="1" stop-color="#14111d"/>
  </linearGradient>
  <radialGradient id="glow" cx="0.5" cy="0.5" r="0.5">
    <stop offset="0" stop-color="#EF9F27" stop-opacity="0.20"/>
    <stop offset="1" stop-color="#EF9F27" stop-opacity="0"/>
  </radialGradient>
  <linearGradient id="amberdown" x1="0" y1="0" x2="0" y2="1">
    <stop offset="0" stop-color="#EF9F27"/><stop offset="1" stop-color="#BA7517"/>
  </linearGradient>
  <pattern id="grid" width="50" height="50" patternUnits="userSpaceOnUse">
    <path d="M50 0 L0 0 0 50" fill="none" stroke="#f5f4f9" stroke-opacity="0.045" stroke-width="1"/>
  </pattern>
</defs>
<rect width="1600" height="900" fill="url(#bgg)"/>
<rect width="1600" height="900" fill="url(#grid)"/>
<ellipse cx="800" cy="450" rx="760" ry="430" fill="url(#glow)"/>
<text x="170" y="268" font-family="ui-monospace, SFMono-Regular, Menlo, Consolas, monospace" font-size="20" font-weight="400" fill="#EF9F27" letter-spacing="3" text-anchor="start">e-commerce</text>
<text x="170" y="300" font-family="ui-monospace, SFMono-Regular, Menlo, Consolas, monospace" font-size="17" font-weight="400" fill="#908ba3" letter-spacing="1.2" text-anchor="start">orders / sec</text>
<rect x="170" y="612" width="40" height="28" rx="3" fill="#f5f4f9" opacity="0.14"/>
<rect x="232" y="604" width="40" height="36" rx="3" fill="#f5f4f9" opacity="0.14"/>
<rect x="294" y="593" width="40" height="47" rx="3" fill="#f5f4f9" opacity="0.14"/>
<rect x="356" y="579" width="40" height="61" rx="3" fill="#f5f4f9" opacity="0.14"/>
<rect x="418" y="561" width="40" height="79" rx="3" fill="#f5f4f9" opacity="0.14"/>
<rect x="480" y="537" width="40" height="103" rx="3" fill="url(#amberdown)" opacity="1.0"/>
<rect x="542" y="505" width="40" height="135" rx="3" fill="url(#amberdown)" opacity="1.0"/>
<rect x="604" y="465" width="40" height="175" rx="3" fill="url(#amberdown)" opacity="1.0"/>
<rect x="666" y="412" width="40" height="228" rx="3" fill="url(#amberdown)" opacity="1.0"/>
<line x1="160" y1="640" x2="740" y2="640" stroke="#f5f4f9" stroke-opacity="0.12" stroke-width="2"/>
<path d="M760 470 C 830 470, 830 470, 900 470" stroke="#EF9F27" stroke-width="2.5" fill="none"/>
<path d="M900 470 l-16 -9 v18 z" fill="#EF9F27"/>
<text x="760" y="440" font-family="ui-monospace, SFMono-Regular, Menlo, Consolas, monospace" font-size="15" font-weight="400" fill="#908ba3" letter-spacing="2" text-anchor="start">one platform</text>
<text x="930" y="268" font-family="ui-monospace, SFMono-Regular, Menlo, Consolas, monospace" font-size="20" font-weight="400" fill="#EF9F27" letter-spacing="3" text-anchor="start">core banking</text>
<text x="930" y="300" font-family="ui-monospace, SFMono-Regular, Menlo, Consolas, monospace" font-size="17" font-weight="400" fill="#908ba3" letter-spacing="1.2" text-anchor="start">ledger · settlement</text>
<rect x="920" y="326" width="520" height="274" rx="14" fill="#1f1a2e" stroke="rgba(245,244,249,0.10)" stroke-width="2"/>
<rect x="948" y="352" width="8" height="8" rx="4" fill="#f5f4f9" opacity="0.22"/>
<rect x="976" y="352" width="250" height="8" rx="4" fill="#f5f4f9" opacity="0.16"/>
<rect x="1290" y="352" width="124" height="8" rx="4" fill="#f5f4f9" opacity="0.1"/>
<line x1="948" y1="378" x2="1414" y2="378" stroke="#f5f4f9" stroke-opacity="0.07" stroke-width="1"/>
<rect x="948" y="396" width="8" height="8" rx="4" fill="#f5f4f9" opacity="0.22"/>
<rect x="976" y="396" width="250" height="8" rx="4" fill="#f5f4f9" opacity="0.16"/>
<rect x="1290" y="396" width="124" height="8" rx="4" fill="#f5f4f9" opacity="0.1"/>
<line x1="948" y1="422" x2="1414" y2="422" stroke="#f5f4f9" stroke-opacity="0.07" stroke-width="1"/>
<rect x="948" y="440" width="8" height="8" rx="4" fill="#EF9F27" opacity="1.0"/>
<rect x="976" y="440" width="210" height="8" rx="4" fill="#EF9F27" opacity="0.9"/>
<rect x="1290" y="440" width="124" height="8" rx="4" fill="#EF9F27" opacity="0.55"/>
<line x1="948" y1="466" x2="1414" y2="466" stroke="#f5f4f9" stroke-opacity="0.07" stroke-width="1"/>
<rect x="948" y="484" width="8" height="8" rx="4" fill="#f5f4f9" opacity="0.22"/>
<rect x="976" y="484" width="250" height="8" rx="4" fill="#f5f4f9" opacity="0.16"/>
<rect x="1290" y="484" width="124" height="8" rx="4" fill="#f5f4f9" opacity="0.1"/>
<line x1="948" y1="510" x2="1414" y2="510" stroke="#f5f4f9" stroke-opacity="0.07" stroke-width="1"/>
<rect x="948" y="528" width="8" height="8" rx="4" fill="#f5f4f9" opacity="0.22"/>
<rect x="976" y="528" width="250" height="8" rx="4" fill="#f5f4f9" opacity="0.16"/>
<rect x="1290" y="528" width="124" height="8" rx="4" fill="#f5f4f9" opacity="0.1"/>
<line x1="948" y1="554" x2="1414" y2="554" stroke="#f5f4f9" stroke-opacity="0.07" stroke-width="1"/>
<rect x="948" y="572" width="8" height="8" rx="4" fill="#f5f4f9" opacity="0.22"/>
<rect x="976" y="572" width="250" height="8" rx="4" fill="#f5f4f9" opacity="0.16"/>
<rect x="1290" y="572" width="124" height="8" rx="4" fill="#f5f4f9" opacity="0.1"/>
<text x="920" y="638" font-family="ui-monospace, SFMono-Regular, Menlo, Consolas, monospace" font-size="16" font-weight="400" fill="#908ba3" letter-spacing="1.4" text-anchor="start">microservices · open APIs · fraud checks</text>
<text x="170" y="686" font-family="ui-monospace, SFMono-Regular, Menlo, Consolas, monospace" font-size="18" font-weight="400" fill="#908ba3" letter-spacing="1.6" text-anchor="start">elastic under load — from cart spikes to settlement windows</text>
</svg>
